<svg version="1.1" id="Layer_1" xmlns="http://www.w3.org/2000/svg" xmlns:xlink="http://www.w3.org/1999/xlink" x="0px" y="0px"
	 width="100%" viewBox="0 0 1000 1000" enable-background="new 0 0 1000 1000" xml:space="preserve">
<path fill="#9A9BFF" opacity="1.000000" stroke="none" 
	d="
M899.044373,128.886292 
	C906.977722,135.701508 914.911133,142.516708 922.666260,149.802124 
	C902.203430,162.570633 881.909668,174.854004 861.636719,187.171600 
	C843.202393,198.372025 824.805969,209.634872 806.364807,220.824066 
	C786.355774,232.964584 766.286865,245.006500 746.295349,257.175690 
	C728.030457,268.293823 709.854919,279.558655 691.600708,290.694366 
	C678.414795,298.738251 665.127136,306.616119 651.990479,314.738831 
	C650.361450,315.746063 649.382080,317.803925 647.796387,319.582886 
	C639.078552,322.933105 630.451111,325.604950 622.303345,329.326874 
	C609.774170,335.050262 599.163391,343.706177 588.715149,353.023926 
	C585.588501,354.105560 582.644531,354.838654 580.166199,356.340240 
	C565.408447,365.281860 550.814026,374.492950 536.060242,383.441162 
	C506.785950,401.196045 477.414764,418.791199 448.139954,436.545135 
	C429.238983,448.007782 410.475983,459.697815 391.582703,471.173187 
	C367.585175,485.748718 343.488434,500.160889 319.491791,514.737854 
	C303.456421,524.478699 287.569611,534.464233 271.527527,544.193787 
	C253.915146,554.875732 236.161255,565.324219 218.542267,575.995361 
	C201.482361,586.327881 184.542099,596.857849 167.501602,607.222656 
	C142.082321,622.683655 116.643600,638.112976 91.162674,653.472046 
	C84.499763,657.488281 77.650230,661.194885 70.886414,665.043640 
	C65.921341,658.283264 60.956261,651.522827 56.301674,644.348694 
	C59.148014,642.693542 61.794518,641.635315 64.201820,640.181152 
	C80.554459,630.303406 96.843063,620.319763 113.178619,610.413696 
	C133.931076,597.829285 154.749023,585.352356 175.462677,572.704529 
	C193.757019,561.533936 211.878220,550.079102 230.199768,538.953796 
	C255.492111,523.595703 280.941711,508.496704 306.247742,493.160950 
	C329.705994,478.944977 353.096008,464.615509 376.445343,450.221252 
	C382.770294,446.322083 388.838867,442.007050 395.343872,437.946228 
	C396.444580,438.217499 397.229553,438.414856 398.008057,438.634918 
	C416.448792,443.848511 427.927765,438.803345 438.563538,424.347870 
	C442.389008,419.148499 442.605865,412.376953 443.508667,405.948853 
	C445.768585,404.903137 447.745941,404.017670 449.589203,402.909180 
	C463.091522,394.789124 476.582520,386.649902 490.047394,378.467834 
	C512.194702,365.009827 534.324036,351.522186 556.452271,338.032990 
	C569.209900,330.256104 581.919434,322.399994 594.706970,314.672668 
	C610.612366,305.061157 626.610413,295.602722 642.504517,285.972687 
	C658.125244,276.508331 673.657593,266.898376 689.243958,257.377258 
	C705.405884,247.504623 721.584595,237.659546 737.758667,227.806885 
	C752.079834,219.082947 766.392761,210.345459 780.730652,201.649200 
	C801.895020,188.812531 823.071289,175.995453 844.256348,163.193024 
	C855.204102,156.577133 866.257996,150.133331 877.119690,143.379822 
	C884.556702,138.755707 891.744934,133.731583 899.044373,128.886292 
z"/>
<path fill="#7F80FF" opacity="1.000000" stroke="none" 
	d="
M296.036438,740.734863 
	C288.082489,739.823242 280.123383,738.954041 272.176056,737.987793 
	C264.386353,737.040771 256.608612,735.995056 248.489822,734.591797 
	C251.532745,731.846741 254.813293,729.343567 258.306519,727.184570 
	C278.099609,714.951538 297.879425,702.694885 317.786682,690.649353 
	C341.664734,676.201172 365.720520,662.046631 389.596588,647.595154 
	C408.182678,636.345581 426.560272,624.751831 445.123657,613.464355 
	C466.700409,600.344604 488.426910,587.471191 509.998749,574.343506 
	C529.723999,562.339661 549.276001,550.051025 569.000305,538.045715 
	C601.510193,518.258423 634.098083,498.599304 666.652100,478.884583 
	C683.143250,468.897552 699.668518,458.966156 716.107910,448.894562 
	C725.160767,443.348328 734.067627,437.563721 743.356262,432.049652 
	C752.627136,438.219727 761.758850,442.796448 773.259033,440.108917 
	C784.732666,437.427673 792.713867,431.108643 797.543701,420.466125 
	C801.386108,411.999329 800.853088,403.545929 798.005859,394.682068 
	C810.634216,386.608734 823.134094,378.806061 835.724365,371.152222 
	C853.461304,360.369629 871.286926,349.733124 889.033203,338.965912 
	C902.351440,330.885315 915.612000,322.709351 928.883972,314.552643 
	C936.940369,309.601379 944.899780,304.488220 953.032410,299.666473 
	C959.869141,295.613037 966.893372,291.875854 973.834595,287.998688 
	C973.881897,301.022614 973.929260,314.046539 973.560669,327.589783 
	C971.933655,328.658173 970.650452,329.088501 969.522034,329.773773 
	C942.414307,346.234863 915.323792,362.724304 888.228760,379.206238 
	C866.100586,392.666870 843.983398,406.145813 821.836548,419.575714 
	C807.507263,428.265015 793.097168,436.821320 778.790161,445.546814 
	C765.907959,453.403320 753.180237,461.514038 740.270386,469.324097 
	C721.363525,480.762146 702.297974,491.938171 683.406616,503.401428 
	C666.511169,513.653625 649.799072,524.207458 632.936401,534.514221 
	C605.450134,551.314270 577.907288,568.021484 550.388123,584.767700 
	C528.821411,597.891724 507.275482,611.050049 485.681824,624.129639 
	C463.529327,637.547791 441.293915,650.829224 419.162781,664.282349 
	C401.300568,675.140564 383.603516,686.270996 365.717316,697.088989 
	C343.548004,710.497620 321.244904,723.684937 299.058838,737.065979 
	C297.779236,737.837769 297.031647,739.491577 296.036438,740.734863 
z"/>
<path fill="#B9BAFF" opacity="1.000000" stroke="none" 
	d="
M612.998413,78.165054 
	C624.969482,78.771423 636.940674,79.376434 648.911682,79.984688 
	C655.646667,80.326881 662.381348,80.674446 669.501099,81.426895 
	C668.614014,83.078339 667.513184,84.593727 666.041748,85.521362 
	C658.183655,90.475426 650.241455,95.296600 642.312561,100.137909 
	C622.057617,112.505508 601.808167,124.882225 581.529846,137.211472 
	C566.083984,146.602631 550.574951,155.890045 535.134949,165.290771 
	C519.971191,174.523315 504.898621,183.905930 489.712769,193.101715 
	C475.514740,201.699326 461.161041,210.040421 446.982208,218.669189 
	C423.864807,232.737701 400.885834,247.034012 377.753326,261.077484 
	C348.528900,278.819305 319.170685,296.341034 289.982544,314.141968 
	C286.625427,316.189392 283.987030,319.415344 280.784851,322.356995 
	C276.307831,324.268494 271.669159,325.297089 267.889374,327.685089 
	C257.102112,334.500183 246.664185,341.868195 235.706482,349.022705 
	C227.737656,353.085602 219.985092,356.865143 212.596817,361.257416 
	C192.890945,372.972473 173.310806,384.900360 153.738815,396.838959 
	C133.882874,408.950714 114.124252,421.222015 94.269409,433.335632 
	C81.642044,441.039764 68.941833,448.625549 56.227291,456.185364 
	C47.247780,461.524353 38.189457,466.730804 29.166321,471.996399 
	C29.115187,459.305908 29.064053,446.615448 29.462841,433.460693 
	C35.729431,429.925293 41.714577,427.132477 47.332031,423.732239 
	C66.192657,412.315918 84.912704,400.667572 103.704956,389.138000 
	C118.005615,380.364166 132.329086,371.627472 146.651962,362.889923 
	C160.685074,354.329102 174.703201,345.743195 188.776627,337.249023 
	C208.396423,325.407349 228.103577,313.709991 247.695007,301.821777 
	C265.878296,290.787994 283.924286,279.528168 302.097107,268.476929 
	C313.426239,261.587433 324.937988,254.998001 336.261383,248.099289 
	C352.714050,238.075577 369.031250,227.829620 385.480194,217.799759 
	C399.926544,208.990997 414.489594,200.373840 428.974274,191.627594 
	C450.857391,178.413940 472.737793,165.195541 494.580170,151.914734 
	C511.021698,141.917831 527.383850,131.790482 543.813660,121.774147 
	C564.519104,109.151199 585.281616,96.621605 605.950745,83.939674 
	C608.515442,82.366043 610.659485,80.106682 612.998413,78.165054 
z"/>
<path fill="#CECFFF" opacity="1.000000" stroke="none" 
	d="
M316.997772,82.164177 
	C334.430969,81.108902 351.859894,79.976196 369.298645,79.022491 
	C383.624573,78.239021 397.962830,77.683205 412.294159,76.995895 
	C418.222107,76.711609 424.146240,76.347534 430.519684,76.447182 
	C430.060486,77.973137 429.363922,79.414879 428.215240,80.118507 
	C411.858704,90.137741 395.448578,100.069618 379.035950,109.997086 
	C362.850372,119.787209 346.616333,129.497498 330.461273,139.337570 
	C316.188232,148.031311 302.036346,156.924088 287.754944,165.603897 
	C272.008453,175.174149 256.144409,184.550903 240.388184,194.105301 
	C223.207840,204.523270 206.124420,215.101120 188.940262,225.512772 
	C169.201553,237.472198 149.350342,249.246414 129.639328,261.251038 
	C114.527214,270.454773 99.590599,279.946198 84.514305,289.209320 
	C67.992577,299.360565 51.423538,309.435638 34.801254,319.420929 
	C33.189484,320.389130 31.057571,320.491425 29.167120,320.995667 
	C29.109745,301.177338 29.034386,281.358948 29.038176,261.540588 
	C29.038410,260.307678 29.659990,259.074921 30.438068,257.409729 
	C37.346516,253.275497 43.873096,249.679764 50.258362,245.848495 
	C61.785885,238.931763 73.236954,231.887344 84.704453,224.870911 
	C92.464546,220.122864 100.147652,215.247040 107.955246,210.578995 
	C120.022751,203.363998 132.233109,196.386581 144.260406,189.106079 
	C156.045441,181.972229 167.609528,174.473373 179.393845,167.338318 
	C193.736832,158.654068 208.277023,150.295135 222.606995,141.589859 
	C239.485977,131.336075 256.185333,120.786880 273.048706,110.507050 
	C286.655701,102.212257 300.414551,94.166687 314.029175,85.884155 
	C315.302002,85.109818 316.021393,83.425812 316.997772,82.164177 
z"/>
<path fill="#7B7BFF" opacity="1.000000" stroke="none" 
	d="
M296.476807,740.851685 
	C297.031647,739.491577 297.779236,737.837769 299.058838,737.065979 
	C321.244904,723.684937 343.548004,710.497620 365.717316,697.088989 
	C383.603516,686.270996 401.300568,675.140564 419.162781,664.282349 
	C441.293915,650.829224 463.529327,637.547791 485.681824,624.129639 
	C507.275482,611.050049 528.821411,597.891724 550.388123,584.767700 
	C577.907288,568.021484 605.450134,551.314270 632.936401,534.514221 
	C649.799072,524.207458 666.511169,513.653625 683.406616,503.401428 
	C702.297974,491.938171 721.363525,480.762146 740.270386,469.324097 
	C753.180237,461.514038 765.907959,453.403320 778.790161,445.546814 
	C793.097168,436.821320 807.507263,428.265015 821.836548,419.575714 
	C843.983398,406.145813 866.100586,392.666870 888.228760,379.206238 
	C915.323792,362.724304 942.414307,346.234863 969.522034,329.773773 
	C970.650452,329.088501 971.933655,328.658173 973.489075,328.053406 
	C973.880920,339.021973 973.928467,350.046204 973.560486,361.589661 
	C960.558167,369.527618 947.907349,376.840302 935.402710,384.394989 
	C922.899109,391.949036 910.598206,399.838379 898.105896,407.411499 
	C882.620667,416.799072 866.965881,425.907440 851.503113,435.331360 
	C836.606079,444.410461 821.925293,453.844299 807.027039,462.921295 
	C795.681335,469.833893 784.073181,476.314911 772.707825,483.196106 
	C753.376831,494.900208 734.178589,506.823425 714.858826,518.546204 
	C703.631653,525.358582 692.212097,531.854431 680.996155,538.684998 
	C669.228149,545.851746 657.675537,553.372803 645.893372,560.515686 
	C627.137695,571.886108 608.211792,582.975952 589.465881,594.362183 
	C571.013000,605.570435 552.724487,617.048950 534.307007,628.315918 
	C520.843750,636.552307 507.255951,644.584961 493.784576,652.808289 
	C483.292419,659.212891 472.948242,665.860352 462.442230,672.241699 
	C442.126099,684.581909 421.742950,696.811768 401.386139,709.084961 
	C386.010559,718.354980 370.598083,727.564636 355.283691,736.934570 
	C352.008148,738.938721 349.084747,741.518433 345.999146,743.833008 
	C332.289001,742.905334 318.580353,741.953979 304.867371,741.070312 
	C302.226074,740.900146 299.567627,740.995605 296.476807,740.851685 
z"/>
<path fill="#7474FF" opacity="1.000000" stroke="none" 
	d="
M973.833252,385.999329 
	C973.880066,398.022400 973.926880,410.045471 973.538147,422.544678 
	C971.410889,423.682312 969.585815,424.121155 968.049133,425.041473 
	C958.209595,430.934265 948.416626,436.905670 938.639709,442.902252 
	C918.952942,454.976929 899.330261,467.156830 879.599792,479.159637 
	C855.059082,494.088684 830.407349,508.835205 805.859131,523.751953 
	C790.525513,533.069519 775.356628,542.658752 759.999634,551.937012 
	C745.226807,560.862427 730.224426,569.408508 715.471924,578.366577 
	C695.589783,590.439514 675.912415,602.849548 656.034607,614.929688 
	C628.052429,631.934875 599.925842,648.702332 571.939270,665.700317 
	C550.495544,678.724365 529.225098,692.033691 507.782013,705.058777 
	C486.046448,718.261597 464.172424,731.236572 442.438446,744.442078 
	C440.950989,745.345825 440.127747,747.342834 438.995605,748.831482 
	C426.122070,748.233032 413.251282,747.560913 400.373627,747.069458 
	C394.559753,746.847534 388.732117,746.985474 382.524109,746.503174 
	C384.427582,744.196106 386.545258,742.064514 389.034790,740.540222 
	C410.292542,727.524658 431.625793,714.632507 452.920380,701.677002 
	C473.081055,689.411316 493.209442,677.092529 513.375244,664.835266 
	C537.222656,650.340332 561.107971,635.907837 584.950500,621.404846 
	C595.873230,614.760681 606.674255,607.915161 617.634338,601.333984 
	C635.985291,590.314819 654.477173,579.529968 672.797852,568.461121 
	C684.587158,561.338196 696.104370,553.765625 707.872864,546.607117 
	C723.183350,537.294189 738.668457,528.268555 753.993774,518.979797 
	C773.463379,507.179169 792.806152,495.169403 812.279419,483.375061 
	C840.545227,466.255432 868.929077,449.330475 897.167419,432.165985 
	C919.596985,418.532349 941.866943,404.636322 964.254211,390.932678 
	C967.309204,389.062714 970.633606,387.632935 973.833252,385.999329 
z"/>
<path fill="#C7C8FF" opacity="1.000000" stroke="none" 
	d="
M29.089207,321.458862 
	C31.057571,320.491425 33.189484,320.389130 34.801254,319.420929 
	C51.423538,309.435638 67.992577,299.360565 84.514305,289.209320 
	C99.590599,279.946198 114.527214,270.454773 129.639328,261.251038 
	C149.350342,249.246414 169.201553,237.472198 188.940262,225.512772 
	C206.124420,215.101120 223.207840,204.523270 240.388184,194.105301 
	C256.144409,184.550903 272.008453,175.174149 287.754944,165.603897 
	C302.036346,156.924088 316.188232,148.031311 330.461273,139.337570 
	C346.616333,129.497498 362.850372,119.787209 379.035950,109.997086 
	C395.448578,100.069618 411.858704,90.137741 428.215240,80.118507 
	C429.363922,79.414879 430.060486,77.973137 430.981445,76.520874 
	C456.020660,75.784393 481.045624,75.401642 506.478577,75.427414 
	C503.917938,78.102974 501.116272,80.640228 497.954041,82.593834 
	C474.818115,96.887192 451.653992,111.136139 428.412994,125.257965 
	C400.610931,142.151260 372.674896,158.824326 344.888672,175.743530 
	C322.786438,189.201691 300.873505,202.970657 278.779205,216.442001 
	C263.054626,226.029602 247.130157,235.288849 231.364853,244.810455 
	C216.323181,253.895065 201.410660,263.193451 186.371521,272.282318 
	C167.205139,283.865448 147.925446,295.261322 128.775955,306.872131 
	C113.588425,316.080688 98.537407,325.514160 83.399529,334.805054 
	C71.401093,342.169128 59.403561,349.536346 47.324959,356.767426 
	C41.366730,360.334412 35.226116,363.596771 29.168036,366.996979 
	C29.115789,351.972015 29.063543,336.947021 29.089207,321.458862 
z"/>
<path fill="#8C8CFF" opacity="1.000000" stroke="none" 
	d="
M166.874435,723.833618 
	C153.440796,721.140930 140.516769,716.944763 128.271271,710.119873 
	C136.473953,704.182251 144.565536,698.693726 152.900040,693.602966 
	C171.185013,682.434387 189.617020,671.506958 207.943069,660.405273 
	C222.565643,651.546997 237.106674,642.554321 251.708557,633.661682 
	C271.424622,621.654297 291.178040,609.708252 310.889191,597.692810 
	C326.056976,588.447021 341.132782,579.049438 356.344391,569.876648 
	C370.852234,561.128174 385.562653,552.714661 400.039490,543.916077 
	C418.321960,532.804504 436.414459,521.380798 454.669250,510.223145 
	C473.791382,498.535431 493.030823,487.039856 512.178528,475.393677 
	C533.178711,462.620819 554.132629,449.771820 575.481689,437.005951 
	C577.436401,437.488525 579.188477,437.617462 580.568787,438.401184 
	C593.071045,445.499817 615.687256,436.393799 621.948792,422.796387 
	C625.575256,414.921204 629.918274,406.915222 635.714966,400.597839 
	C647.154175,388.130951 662.018311,382.293335 679.157227,381.897491 
	C690.819885,381.628113 701.134888,385.241028 710.967346,390.935364 
	C707.854919,393.357422 704.996094,395.620636 701.906860,397.506592 
	C689.290833,405.208344 676.580444,412.755493 663.950317,420.434418 
	C650.321350,428.720642 636.774719,437.142456 623.135864,445.412231 
	C598.829468,460.150238 574.450745,474.769165 550.159546,489.532104 
	C532.969910,499.979156 515.909790,510.639343 498.728546,521.100281 
	C475.604431,535.179626 452.411499,549.145874 429.263306,563.185669 
	C414.930206,571.878906 400.646027,580.652832 386.303284,589.330078 
	C360.274689,605.077087 334.213257,620.769836 308.176392,636.503235 
	C292.678192,645.868347 277.208344,655.280396 261.711609,664.647827 
	C246.924759,673.586304 232.090271,682.446350 217.331375,691.430664 
	C204.559784,699.205078 191.815430,707.026917 179.163773,714.994141 
	C174.901932,717.678040 170.961670,720.872498 166.874435,723.833618 
z"/>
<path fill="#A0A1FF" opacity="1.000000" stroke="none" 
	d="
M898.893555,128.573441 
	C891.744934,133.731583 884.556702,138.755707 877.119690,143.379822 
	C866.257996,150.133331 855.204102,156.577133 844.256348,163.193024 
	C823.071289,175.995453 801.895020,188.812531 780.730652,201.649200 
	C766.392761,210.345459 752.079834,219.082947 737.758667,227.806885 
	C721.584595,237.659546 705.405884,247.504623 689.243958,257.377258 
	C673.657593,266.898376 658.125244,276.508331 642.504517,285.972687 
	C626.610413,295.602722 610.612366,305.061157 594.706970,314.672668 
	C581.919434,322.399994 569.209900,330.256104 556.452271,338.032990 
	C534.324036,351.522186 512.194702,365.009827 490.047394,378.467834 
	C476.582520,386.649902 463.091522,394.789124 449.589203,402.909180 
	C447.745941,404.017670 445.768585,404.903137 443.311829,405.600403 
	C441.302002,400.469421 440.211609,395.471710 438.269043,390.830658 
	C435.869019,385.096741 432.760895,379.659180 430.030090,373.750610 
	C440.030090,367.124908 449.879089,360.711884 459.902771,354.584503 
	C487.130432,337.940491 514.427979,321.410706 541.705444,304.848267 
	C570.394775,287.428589 599.108765,270.049744 627.781555,252.603012 
	C647.092224,240.852936 666.322205,228.970215 685.637939,217.228516 
	C716.741150,198.321365 747.879333,179.471634 779.014465,160.617081 
	C798.635620,148.735062 818.320129,136.956802 837.891907,124.994087 
	C846.384888,119.802979 854.665833,114.264893 863.043091,108.884415 
	C874.358765,115.075180 885.673523,121.267632 896.992920,127.451622 
	C897.555542,127.759026 898.158508,127.992661 898.893555,128.573441 
z"/>
<path fill="#6565FF" opacity="1.000000" stroke="none" 
	d="
M505.957733,802.114380 
	C498.040771,794.316162 490.123779,786.517944 482.289062,778.138550 
	C503.795593,764.575317 525.212280,751.580811 546.645996,738.614258 
	C577.036377,720.229248 607.458557,701.896912 637.828308,683.477844 
	C652.592651,674.523376 667.272034,665.428528 681.983826,656.387512 
	C703.350098,643.257202 724.655457,630.026672 746.093445,617.014648 
	C760.713135,608.141174 775.588074,599.688660 790.220398,590.835571 
	C821.056824,572.178284 851.829041,553.414551 882.589111,534.631409 
	C907.239502,519.579041 931.797791,504.375427 956.478882,489.373688 
	C962.090393,485.962860 968.040039,483.108337 973.834045,479.997742 
	C973.881104,492.355377 973.928223,504.712982 973.542358,517.546021 
	C971.731812,518.561218 970.247803,518.922485 968.993347,519.669189 
	C958.864319,525.698608 948.757629,531.766113 938.683655,537.887024 
	C913.864929,552.966614 889.054688,568.060242 864.268066,583.192444 
	C855.480408,588.557251 846.827637,594.144104 838.013184,599.463501 
	C823.237549,608.380554 808.328064,617.076233 793.574341,626.028931 
	C778.669250,635.073364 763.929138,644.389648 749.035645,653.453430 
	C733.135437,663.129944 717.114502,672.607910 701.193237,682.250000 
	C681.733765,694.034851 662.323364,705.900513 642.891602,717.731018 
	C618.046021,732.857544 593.207947,747.996521 568.351807,763.105774 
	C551.896179,773.108521 535.376953,783.007507 518.969116,793.087769 
	C514.478394,795.846680 510.286652,799.092163 505.957733,802.114380 
z"/>
<path fill="#A8A9FF" opacity="1.000000" stroke="none" 
	d="
M37.166466,602.995178 
	C35.113464,595.098267 32.281815,587.306396 31.199183,579.278625 
	C29.757641,568.589478 29.677393,557.716736 29.463972,546.459229 
	C31.860596,545.179993 33.944515,544.593445 35.728046,543.511658 
	C47.080173,536.626221 58.324726,529.563232 69.682930,522.687988 
	C89.290634,510.819183 108.990013,499.101654 128.585999,487.213654 
	C146.461731,476.369232 164.271973,465.416351 182.071320,454.446808 
	C193.089722,447.656219 204.033783,440.744995 215.331543,434.063721 
	C224.007004,440.719849 233.617798,441.984955 243.439178,439.598083 
	C252.212051,437.466034 260.025940,432.937103 263.756500,424.085968 
	C268.807465,412.102112 275.409760,401.462128 286.015656,393.540466 
	C295.220825,386.665100 305.584595,383.187378 316.866241,382.005676 
	C324.458710,381.210388 331.726440,382.206116 339.129730,384.341644 
	C345.826416,386.273315 352.100586,388.595459 357.426208,393.043243 
	C360.885559,395.932373 364.040527,399.185944 367.145630,402.609924 
	C360.368927,407.096191 353.828918,411.331360 347.178955,415.386169 
	C325.345856,428.698761 303.452026,441.911652 281.621796,455.228821 
	C264.194611,465.859985 246.862885,476.647705 229.421890,487.255920 
	C210.838699,498.558929 192.157745,509.701050 173.554016,520.970398 
	C147.847610,536.542236 122.152527,552.133057 96.493988,567.783630 
	C82.468719,576.338440 68.586014,585.127991 54.522038,593.617859 
	C48.899029,597.012329 42.961075,599.885010 37.166466,602.995178 
z"/>
<path fill="#5C5DFF" opacity="1.000000" stroke="none" 
	d="
M973.834045,546.998108 
	C974.493469,562.743103 972.892517,578.212158 967.663391,593.705322 
	C962.930298,596.409424 958.615967,598.546509 954.515503,601.035889 
	C923.691711,619.748657 892.913086,638.535828 862.114136,657.289612 
	C843.112061,668.860352 824.107727,680.427429 805.088684,691.970276 
	C783.069702,705.333740 761.010071,718.630554 739.050903,732.091370 
	C737.364319,733.125122 736.333252,735.228149 734.997437,736.834106 
	C727.251831,737.888977 719.533997,739.322998 711.752930,739.893433 
	C703.778931,740.477783 703.283020,740.554138 702.687195,748.598022 
	C700.965271,749.371338 699.572937,749.480957 698.502136,750.125122 
	C690.674255,754.834717 682.927246,759.678528 675.123962,764.429382 
	C651.288025,778.941650 627.445374,793.442932 603.591125,807.925049 
	C589.949890,816.206604 576.242188,824.379333 562.643982,832.730530 
	C557.303040,836.010681 552.179077,839.644104 546.956299,843.116577 
	C539.374084,835.651001 531.791870,828.185486 524.244141,820.109253 
	C526.173035,818.172485 528.003906,816.742737 529.972290,815.537842 
	C540.172485,809.294250 550.428040,803.141052 560.625610,796.893250 
	C572.648010,789.527527 584.587952,782.026428 596.642883,774.714783 
	C608.998535,767.220825 621.499207,759.965820 633.847778,752.460327 
	C651.155823,741.940430 668.355957,731.243164 685.651672,720.702820 
	C698.691772,712.755981 711.844055,704.993408 724.883911,697.046143 
	C742.462830,686.332275 759.934875,675.442627 777.539062,664.770569 
	C796.854980,653.060913 816.304321,641.571594 835.628601,629.875793 
	C850.949036,620.603210 866.142578,611.121155 881.438843,601.808411 
	C905.273987,587.297180 929.108643,572.784119 953.031677,558.418701 
	C959.808228,554.349487 966.891479,550.790833 973.834045,546.998108 
z"/>
<path fill="#A0A1FF" opacity="1.000000" stroke="none" 
	d="
M37.094589,603.377563 
	C42.961075,599.885010 48.899029,597.012329 54.522038,593.617859 
	C68.586014,585.127991 82.468719,576.338440 96.493988,567.783630 
	C122.152527,552.133057 147.847610,536.542236 173.554016,520.970398 
	C192.157745,509.701050 210.838699,498.558929 229.421890,487.255920 
	C246.862885,476.647705 264.194611,465.859985 281.621796,455.228821 
	C303.452026,441.911652 325.345856,428.698761 347.178955,415.386169 
	C353.828918,411.331360 360.368927,407.096191 367.351898,402.925568 
	C371.427612,408.376007 375.988861,413.461731 378.580780,419.406067 
	C382.145691,427.582092 387.294800,433.720734 395.025116,437.882904 
	C388.838867,442.007050 382.770294,446.322083 376.445343,450.221252 
	C353.096008,464.615509 329.705994,478.944977 306.247742,493.160950 
	C280.941711,508.496704 255.492111,523.595703 230.199768,538.953796 
	C211.878220,550.079102 193.757019,561.533936 175.462677,572.704529 
	C154.749023,585.352356 133.931076,597.829285 113.178619,610.413696 
	C96.843063,620.319763 80.554459,630.303406 64.201820,640.181152 
	C61.794518,641.635315 59.148014,642.693542 56.247353,643.987549 
	C46.886860,631.881836 42.230648,617.691711 37.094589,603.377563 
z"/>
<path fill="#B4B4FF" opacity="1.000000" stroke="none" 
	d="
M281.015411,322.094879 
	C283.987030,319.415344 286.625427,316.189392 289.982544,314.141968 
	C319.170685,296.341034 348.528900,278.819305 377.753326,261.077484 
	C400.885834,247.034012 423.864807,232.737701 446.982208,218.669189 
	C461.161041,210.040421 475.514740,201.699326 489.712769,193.101715 
	C504.898621,183.905930 519.971191,174.523315 535.134949,165.290771 
	C550.574951,155.890045 566.083984,146.602631 581.529846,137.211472 
	C601.808167,124.882225 622.057617,112.505508 642.312561,100.137909 
	C650.241455,95.296600 658.183655,90.475426 666.041748,85.521362 
	C667.513184,84.593727 668.614014,83.078339 669.941162,81.500244 
	C680.253845,82.086716 690.512695,82.990387 700.768005,83.933266 
	C707.970093,84.595413 715.168030,85.303047 722.366211,86.006180 
	C725.625427,86.324539 728.880798,86.681267 732.509583,87.427444 
	C731.561157,89.035751 730.392700,90.484161 728.898315,91.401596 
	C706.407532,105.208748 683.910217,119.005882 661.340820,132.683945 
	C635.781006,148.174316 610.105652,163.474304 584.559509,178.987167 
	C564.967346,190.884506 545.555664,203.079163 525.960938,214.972366 
	C490.350677,236.586380 454.651306,258.053497 419.014557,279.623932 
	C400.127045,291.056274 381.262512,302.527527 362.472260,314.118439 
	C360.056732,315.608459 358.152039,317.926544 355.609680,319.904266 
	C339.059265,315.458862 322.577209,314.850983 306.086700,316.738220 
	C297.635925,317.705383 289.366699,320.258514 281.015411,322.094879 
z"/>
<path fill="#8788FF" opacity="1.000000" stroke="none" 
	d="
M167.223022,723.911682 
	C170.961670,720.872498 174.901932,717.678040 179.163773,714.994141 
	C191.815430,707.026917 204.559784,699.205078 217.331375,691.430664 
	C232.090271,682.446350 246.924759,673.586304 261.711609,664.647827 
	C277.208344,655.280396 292.678192,645.868347 308.176392,636.503235 
	C334.213257,620.769836 360.274689,605.077087 386.303284,589.330078 
	C400.646027,580.652832 414.930206,571.878906 429.263306,563.185669 
	C452.411499,549.145874 475.604431,535.179626 498.728546,521.100281 
	C515.909790,510.639343 532.969910,499.979156 550.159546,489.532104 
	C574.450745,474.769165 598.829468,460.150238 623.135864,445.412231 
	C636.774719,437.142456 650.321350,428.720642 663.950317,420.434418 
	C676.580444,412.755493 689.290833,405.208344 701.906860,397.506592 
	C704.996094,395.620636 707.854919,393.357422 711.253174,391.153809 
	C719.898254,395.986664 726.886536,402.122284 730.696289,410.997070 
	C729.128418,411.524780 727.851624,411.906769 726.748962,412.575806 
	C707.284424,424.385895 687.861511,436.264862 668.387939,448.059937 
	C643.961182,462.855072 619.443359,477.500366 595.063904,492.372772 
	C572.238831,506.296967 549.605652,520.535889 526.773560,534.448547 
	C500.814270,550.266785 474.706573,565.841309 448.704346,581.589478 
	C430.366119,592.695984 412.124298,603.961609 393.789734,615.074097 
	C361.855499,634.429321 329.877563,653.712463 297.927917,673.042358 
	C271.065308,689.294434 244.187378,705.521667 217.396149,721.890747 
	C213.694733,724.152283 210.453568,727.167175 206.999359,729.833313 
	C193.856766,727.885437 180.714188,725.937622 167.223022,723.911682 
z"/>
<path fill="#6B6CFF" opacity="1.000000" stroke="none" 
	d="
M973.904419,479.533875 
	C968.040039,483.108337 962.090393,485.962860 956.478882,489.373688 
	C931.797791,504.375427 907.239502,519.579041 882.589111,534.631409 
	C851.829041,553.414551 821.056824,572.178284 790.220398,590.835571 
	C775.588074,599.688660 760.713135,608.141174 746.093445,617.014648 
	C724.655457,630.026672 703.350098,643.257202 681.983826,656.387512 
	C667.272034,665.428528 652.592651,674.523376 637.828308,683.477844 
	C607.458557,701.896912 577.036377,720.229248 546.645996,738.614258 
	C525.212280,751.580811 503.795593,764.575317 482.160492,777.832092 
	C475.353119,771.626648 468.756561,765.146484 462.335388,758.197754 
	C475.979279,749.501587 489.445129,741.269592 502.916901,733.047424 
	C521.061462,721.973328 539.189575,710.872192 557.362854,699.845459 
	C582.077759,684.849548 606.857178,669.959839 631.555786,654.937134 
	C654.552673,640.949280 677.437439,626.777100 700.447449,612.811157 
	C735.948120,591.264099 771.536133,569.861084 807.042664,548.323792 
	C827.490051,535.920959 847.837463,523.353333 868.252625,510.897217 
	C896.751892,493.508667 925.234619,476.092468 953.812439,458.833801 
	C960.300720,454.915344 967.150024,451.594666 973.833252,447.998810 
	C973.880432,458.355896 973.927673,468.712952 973.904419,479.533875 
z"/>
<path fill="#D5D6FF" opacity="1.000000" stroke="none" 
	d="
M316.568451,82.090408 
	C316.021393,83.425812 315.302002,85.109818 314.029175,85.884155 
	C300.414551,94.166687 286.655701,102.212257 273.048706,110.507050 
	C256.185333,120.786880 239.485977,131.336075 222.606995,141.589859 
	C208.277023,150.295135 193.736832,158.654068 179.393845,167.338318 
	C167.609528,174.473373 156.045441,181.972229 144.260406,189.106079 
	C132.233109,196.386581 120.022751,203.363998 107.955246,210.578995 
	C100.147652,215.247040 92.464546,220.122864 84.704453,224.870911 
	C73.236954,231.887344 61.785885,238.931763 50.258362,245.848495 
	C43.873096,249.679764 37.346516,253.275497 30.523880,256.987610 
	C30.455769,244.047485 33.468338,231.604752 37.486584,219.400848 
	C42.911846,202.923676 50.036568,187.067444 60.214214,173.092041 
	C68.288574,162.004791 77.891495,151.929642 87.530975,142.107010 
	C101.885490,127.479790 119.138443,116.767914 138.214951,109.579544 
	C150.240707,105.048035 162.875610,101.901466 175.459183,99.147652 
	C187.826035,96.441261 200.444427,94.803970 213.006653,93.096329 
	C222.918732,91.748947 232.921249,91.080437 242.868713,89.976181 
	C253.772110,88.765808 264.654510,87.367523 275.553589,86.116676 
	C282.246002,85.348625 288.950562,84.683586 295.653320,84.008728 
	C302.479584,83.321434 309.310333,82.678810 316.568451,82.090408 
z"/>
<path fill="#9192FF" opacity="1.000000" stroke="none" 
	d="
M575.106689,436.955994 
	C554.132629,449.771820 533.178711,462.620819 512.178528,475.393677 
	C493.030823,487.039856 473.791382,498.535431 454.669250,510.223145 
	C436.414459,521.380798 418.321960,532.804504 400.039490,543.916077 
	C385.562653,552.714661 370.852234,561.128174 356.344391,569.876648 
	C341.132782,579.049438 326.056976,588.447021 310.889191,597.692810 
	C291.178040,609.708252 271.424622,621.654297 251.708557,633.661682 
	C237.106674,642.554321 222.565643,651.546997 207.943069,660.405273 
	C189.617020,671.506958 171.185013,682.434387 152.900040,693.602966 
	C144.565536,698.693726 136.473953,704.182251 128.112335,709.799805 
	C119.649300,705.259521 111.334000,700.430420 103.055054,695.539734 
	C101.678429,694.726562 100.460335,693.645020 99.339081,692.208801 
	C117.732506,680.463135 135.898727,669.102356 154.193695,657.952820 
	C176.895630,644.117676 199.716095,630.477112 222.463882,616.717041 
	C258.862183,594.699829 295.251617,572.668091 331.627960,550.614563 
	C357.914703,534.677979 384.196533,518.733032 410.439362,502.724365 
	C436.957916,486.547546 463.414368,470.269073 489.919830,454.070801 
	C506.783173,443.765137 523.629944,433.430054 540.600830,423.303741 
	C546.839233,419.581360 553.413269,416.421295 559.891968,413.404846 
	C561.167419,417.284760 561.715515,421.235474 563.755920,424.136658 
	C567.018738,428.776001 571.272095,432.718750 575.106689,436.955994 
z"/>
<path fill="#8484FF" opacity="1.000000" stroke="none" 
	d="
M207.371994,730.025940 
	C210.453568,727.167175 213.694733,724.152283 217.396149,721.890747 
	C244.187378,705.521667 271.065308,689.294434 297.927917,673.042358 
	C329.877563,653.712463 361.855499,634.429321 393.789734,615.074097 
	C412.124298,603.961609 430.366119,592.695984 448.704346,581.589478 
	C474.706573,565.841309 500.814270,550.266785 526.773560,534.448547 
	C549.605652,520.535889 572.238831,506.296967 595.063904,492.372772 
	C619.443359,477.500366 643.961182,462.855072 668.387939,448.059937 
	C687.861511,436.264862 707.284424,424.385895 726.748962,412.575806 
	C727.851624,411.906769 729.128418,411.524780 730.877625,411.287994 
	C735.300903,418.340088 739.170654,425.113342 743.040344,431.886597 
	C734.067627,437.563721 725.160767,443.348328 716.107910,448.894562 
	C699.668518,458.966156 683.143250,468.897552 666.652100,478.884583 
	C634.098083,498.599304 601.510193,518.258423 569.000305,538.045715 
	C549.276001,550.051025 529.723999,562.339661 509.998749,574.343506 
	C488.426910,587.471191 466.700409,600.344604 445.123657,613.464355 
	C426.560272,624.751831 408.182678,636.345581 389.596588,647.595154 
	C365.720520,662.046631 341.664734,676.201172 317.786682,690.649353 
	C297.879425,702.694885 278.099609,714.951538 258.306519,727.184570 
	C254.813293,729.343567 251.532745,731.846741 248.076477,734.512146 
	C240.341705,734.151428 232.670135,733.597839 225.031845,732.745850 
	C219.247452,732.100769 213.505493,731.074951 207.371994,730.025940 
z"/>
<path fill="#AFB0FF" opacity="1.000000" stroke="none" 
	d="
M356.010712,319.861053 
	C358.152039,317.926544 360.056732,315.608459 362.472260,314.118439 
	C381.262512,302.527527 400.127045,291.056274 419.014557,279.623932 
	C454.651306,258.053497 490.350677,236.586380 525.960938,214.972366 
	C545.555664,203.079163 564.967346,190.884506 584.559509,178.987167 
	C610.105652,163.474304 635.781006,148.174316 661.340820,132.683945 
	C683.910217,119.005882 706.407532,105.208748 728.898315,91.401596 
	C730.392700,90.484161 731.561157,89.035751 732.939087,87.501251 
	C740.855042,88.051399 748.710876,88.954933 756.571838,89.811707 
	C763.525513,90.569595 770.486877,91.257095 777.440674,92.013733 
	C780.016541,92.294006 782.580566,92.682610 785.516785,93.431305 
	C784.951477,94.981796 784.238159,96.476830 783.053406,97.208855 
	C771.639771,104.260971 760.151611,111.192650 748.675537,118.143547 
	C716.317566,137.742310 683.931702,157.295074 651.602295,176.940689 
	C626.765930,192.033035 602.010376,207.258286 577.195740,222.386383 
	C563.587524,230.682526 549.912170,238.868576 536.301697,247.160950 
	C519.710083,257.269623 503.200439,267.513519 486.568848,277.555603 
	C473.938629,285.181671 461.115997,292.489014 448.481812,300.108643 
	C431.285156,310.479828 414.165436,320.979401 397.074951,331.524780 
	C395.157623,332.707855 393.643646,334.544647 391.633423,335.921967 
	C379.553101,330.464142 367.781891,325.162598 356.010712,319.861053 
z"/>
<path fill="#7677FF" opacity="1.000000" stroke="none" 
	d="
M973.905151,385.535583 
	C970.633606,387.632935 967.309204,389.062714 964.254211,390.932678 
	C941.866943,404.636322 919.596985,418.532349 897.167419,432.165985 
	C868.929077,449.330475 840.545227,466.255432 812.279419,483.375061 
	C792.806152,495.169403 773.463379,507.179169 753.993774,518.979797 
	C738.668457,528.268555 723.183350,537.294189 707.872864,546.607117 
	C696.104370,553.765625 684.587158,561.338196 672.797852,568.461121 
	C654.477173,579.529968 635.985291,590.314819 617.634338,601.333984 
	C606.674255,607.915161 595.873230,614.760681 584.950500,621.404846 
	C561.107971,635.907837 537.222656,650.340332 513.375244,664.835266 
	C493.209442,677.092529 473.081055,689.411316 452.920380,701.677002 
	C431.625793,714.632507 410.292542,727.524658 389.034790,740.540222 
	C386.545258,742.064514 384.427582,744.196106 382.073914,746.367920 
	C380.224182,746.459595 378.443573,746.095398 376.651062,746.021729 
	C367.267822,745.635925 357.881104,745.336365 348.497589,744.956787 
	C347.909576,744.933044 347.338715,744.484802 346.379517,744.033508 
	C349.084747,741.518433 352.008148,738.938721 355.283691,736.934570 
	C370.598083,727.564636 386.010559,718.354980 401.386139,709.084961 
	C421.742950,696.811768 442.126099,684.581909 462.442230,672.241699 
	C472.948242,665.860352 483.292419,659.212891 493.784576,652.808289 
	C507.255951,644.584961 520.843750,636.552307 534.307007,628.315918 
	C552.724487,617.048950 571.013000,605.570435 589.465881,594.362183 
	C608.211792,582.975952 627.137695,571.886108 645.893372,560.515686 
	C657.675537,553.372803 669.228149,545.851746 680.996155,538.684998 
	C692.212097,531.854431 703.631653,525.358582 714.858826,518.546204 
	C734.178589,506.823425 753.376831,494.900208 772.707825,483.196106 
	C784.073181,476.314911 795.681335,469.833893 807.027039,462.921295 
	C821.925293,453.844299 836.606079,444.410461 851.503113,435.331360 
	C866.965881,425.907440 882.620667,416.799072 898.105896,407.411499 
	C910.598206,399.838379 922.899109,391.949036 935.402710,384.394989 
	C947.907349,376.840302 960.558167,369.527618 973.489014,362.053314 
	C973.881104,369.689117 973.929077,377.380463 973.905151,385.535583 
z"/>
<path fill="#A8A9FF" opacity="1.000000" stroke="none" 
	d="
M391.942596,336.078247 
	C393.643646,334.544647 395.157623,332.707855 397.074951,331.524780 
	C414.165436,320.979401 431.285156,310.479828 448.481812,300.108643 
	C461.115997,292.489014 473.938629,285.181671 486.568848,277.555603 
	C503.200439,267.513519 519.710083,257.269623 536.301697,247.160950 
	C549.912170,238.868576 563.587524,230.682526 577.195740,222.386383 
	C602.010376,207.258286 626.765930,192.033035 651.602295,176.940689 
	C683.931702,157.295074 716.317566,137.742310 748.675537,118.143547 
	C760.151611,111.192650 771.639771,104.260971 783.053406,97.208855 
	C784.238159,96.476830 784.951477,94.981796 785.939453,93.504120 
	C796.777771,94.591988 807.569641,95.949966 818.338379,97.471375 
	C823.152100,98.151443 827.919495,99.159622 832.906555,100.453857 
	C830.299683,102.878448 827.591553,105.025436 824.672546,106.831688 
	C807.876709,117.224831 791.084045,127.625107 774.190308,137.857758 
	C744.497803,155.842667 714.691101,173.639191 685.011475,191.645233 
	C660.153015,206.726318 635.449951,222.063385 610.601318,237.160751 
	C580.926453,255.190399 551.147034,273.047913 521.455139,291.049652 
	C493.049561,308.271545 464.673859,325.543121 436.340302,342.883179 
	C429.438080,347.107361 422.752533,351.685638 415.672852,355.938599 
	C407.566467,349.210175 399.754517,342.644196 391.942596,336.078247 
z"/>
<path fill="#6262FF" opacity="1.000000" stroke="none" 
	d="
M973.904236,546.534241 
	C966.891479,550.790833 959.808228,554.349487 953.031677,558.418701 
	C929.108643,572.784119 905.273987,587.297180 881.438843,601.808411 
	C866.142578,611.121155 850.949036,620.603210 835.628601,629.875793 
	C816.304321,641.571594 796.854980,653.060913 777.539062,664.770569 
	C759.934875,675.442627 742.462830,686.332275 724.883911,697.046143 
	C711.844055,704.993408 698.691772,712.755981 685.651672,720.702820 
	C668.355957,731.243164 651.155823,741.940430 633.847778,752.460327 
	C621.499207,759.965820 608.998535,767.220825 596.642883,774.714783 
	C584.587952,782.026428 572.648010,789.527527 560.625610,796.893250 
	C550.428040,803.141052 540.172485,809.294250 529.972290,815.537842 
	C528.003906,816.742737 526.173035,818.172485 524.114746,819.803223 
	C518.039001,814.313660 512.127197,808.519348 506.086548,802.419678 
	C510.286652,799.092163 514.478394,795.846680 518.969116,793.087769 
	C535.376953,783.007507 551.896179,773.108521 568.351807,763.105774 
	C593.207947,747.996521 618.046021,732.857544 642.891602,717.731018 
	C662.323364,705.900513 681.733765,694.034851 701.193237,682.250000 
	C717.114502,672.607910 733.135437,663.129944 749.035645,653.453430 
	C763.929138,644.389648 778.669250,635.073364 793.574341,626.028931 
	C808.328064,617.076233 823.237549,608.380554 838.013184,599.463501 
	C846.827637,594.144104 855.480408,588.557251 864.268066,583.192444 
	C889.054688,568.060242 913.864929,552.966614 938.683655,537.887024 
	C948.757629,531.766113 958.864319,525.698608 968.993347,519.669189 
	C970.247803,518.922485 971.731812,518.561218 973.471313,518.009644 
	C973.880310,527.355469 973.927368,536.712891 973.904236,546.534241 
z"/>
<path fill="#BFC0FF" opacity="1.000000" stroke="none" 
	d="
M547.998352,75.166641 
	C560.527588,75.492249 573.056885,75.817848 585.744507,76.857773 
	C584.540955,78.739418 583.310242,80.123055 581.797119,81.041603 
	C558.802673,95.001305 535.743958,108.855400 512.755615,122.825226 
	C487.626251,138.096161 462.571503,153.489807 437.451599,168.776352 
	C414.887939,182.507294 392.264923,196.140717 369.696289,209.863525 
	C350.695740,221.416748 331.753571,233.065979 312.752411,244.618164 
	C296.004578,254.800400 279.186798,264.867554 262.443054,275.056488 
	C236.053802,291.114899 209.709488,307.247162 183.328842,323.319733 
	C169.136276,331.966614 154.908585,340.555847 140.694977,349.168152 
	C110.847610,367.253418 81.019806,385.371124 51.136040,403.396027 
	C43.908630,407.755371 36.494839,411.805634 29.166756,415.998016 
	C29.115740,407.973602 29.064728,399.949158 29.453154,391.450745 
	C34.349693,388.483795 38.873428,386.102051 43.252880,383.479431 
	C68.731087,368.221588 94.207947,352.960968 119.617195,337.588745 
	C131.969528,330.115784 144.118835,322.307617 156.457962,314.812378 
	C176.615707,302.567749 196.889801,290.514648 217.047318,278.269623 
	C237.314011,265.958313 257.471161,253.466736 277.726074,241.135864 
	C299.567291,227.839249 321.474701,214.651459 343.337280,201.389877 
	C362.092560,190.013168 380.796692,178.551880 399.576141,167.215271 
	C418.296906,155.914062 437.134918,144.806503 455.824615,133.454468 
	C471.004791,124.234100 485.999573,114.709000 501.153809,105.445312 
	C515.739929,96.528900 530.447388,87.810974 545.027588,78.885002 
	C546.299866,78.106140 547.021118,76.427391 547.998352,75.166641 
z"/>
<path fill="#6F6FFF" opacity="1.000000" stroke="none" 
	d="
M973.904541,447.535004 
	C967.150024,451.594666 960.300720,454.915344 953.812439,458.833801 
	C925.234619,476.092468 896.751892,493.508667 868.252625,510.897217 
	C847.837463,523.353333 827.490051,535.920959 807.042664,548.323792 
	C771.536133,569.861084 735.948120,591.264099 700.447449,612.811157 
	C677.437439,626.777100 654.552673,640.949280 631.555786,654.937134 
	C606.857178,669.959839 582.077759,684.849548 557.362854,699.845459 
	C539.189575,710.872192 521.061462,721.973328 502.916901,733.047424 
	C489.445129,741.269592 475.979279,749.501587 462.200623,757.888062 
	C455.245514,753.315674 448.469208,748.903748 439.421356,748.904907 
	C440.127747,747.342834 440.950989,745.345825 442.438446,744.442078 
	C464.172424,731.236572 486.046448,718.261597 507.782013,705.058777 
	C529.225098,692.033691 550.495544,678.724365 571.939270,665.700317 
	C599.925842,648.702332 628.052429,631.934875 656.034607,614.929688 
	C675.912415,602.849548 695.589783,590.439514 715.471924,578.366577 
	C730.224426,569.408508 745.226807,560.862427 759.999634,551.937012 
	C775.356628,542.658752 790.525513,533.069519 805.859131,523.751953 
	C830.407349,508.835205 855.059082,494.088684 879.599792,479.159637 
	C899.330261,467.156830 918.952942,454.976929 938.639709,442.902252 
	C948.416626,436.905670 958.209595,430.934265 968.049133,425.041473 
	C969.585815,424.121155 971.410889,423.682312 973.467041,423.008240 
	C973.879639,431.020874 973.927734,439.046051 973.904541,447.535004 
z"/>
<path fill="#9495FF" opacity="1.000000" stroke="none" 
	d="
M559.834229,413.004761 
	C553.413269,416.421295 546.839233,419.581360 540.600830,423.303741 
	C523.629944,433.430054 506.783173,443.765137 489.919830,454.070801 
	C463.414368,470.269073 436.957916,486.547546 410.439362,502.724365 
	C384.196533,518.733032 357.914703,534.677979 331.627960,550.614563 
	C295.251617,572.668091 258.862183,594.699829 222.463882,616.717041 
	C199.716095,630.477112 176.895630,644.117676 154.193695,657.952820 
	C135.898727,669.102356 117.732506,680.463135 99.199127,691.888672 
	C93.326523,687.273376 87.763947,682.499573 82.235886,677.109253 
	C83.111092,675.701904 83.845146,674.737671 84.808144,674.146057 
	C105.596031,661.375366 126.367165,648.576477 147.228607,635.926697 
	C174.488266,619.397339 201.858734,603.050598 229.113266,586.512756 
	C246.713730,575.832886 264.152069,564.886108 281.737030,554.180420 
	C296.472870,545.209351 311.332703,536.442322 326.107361,527.534729 
	C347.852600,514.424622 369.603302,501.323059 391.292786,488.121124 
	C421.344727,469.829071 451.324005,451.417633 481.368439,433.113190 
	C505.615570,418.340698 529.883972,403.602539 554.215088,388.969116 
	C558.574036,386.347565 563.284546,384.310455 567.757324,382.341888 
	C566.757141,384.587006 565.812195,386.484222 564.911194,388.402130 
	C561.250061,396.195068 557.807373,404.036652 559.834229,413.004761 
z"/>
<path fill="#C3C4FF" opacity="1.000000" stroke="none" 
	d="
M547.535034,75.092239 
	C547.021118,76.427391 546.299866,78.106140 545.027588,78.885002 
	C530.447388,87.810974 515.739929,96.528900 501.153809,105.445312 
	C485.999573,114.709000 471.004791,124.234100 455.824615,133.454468 
	C437.134918,144.806503 418.296906,155.914062 399.576141,167.215271 
	C380.796692,178.551880 362.092560,190.013168 343.337280,201.389877 
	C321.474701,214.651459 299.567291,227.839249 277.726074,241.135864 
	C257.471161,253.466736 237.314011,265.958313 217.047318,278.269623 
	C196.889801,290.514648 176.615707,302.567749 156.457962,314.812378 
	C144.118835,322.307617 131.969528,330.115784 119.617195,337.588745 
	C94.207947,352.960968 68.731087,368.221588 43.252880,383.479431 
	C38.873428,386.102051 34.349693,388.483795 29.529636,390.987549 
	C29.115808,383.306732 29.064938,375.615112 29.091051,367.460236 
	C35.226116,363.596771 41.366730,360.334412 47.324959,356.767426 
	C59.403561,349.536346 71.401093,342.169128 83.399529,334.805054 
	C98.537407,325.514160 113.588425,316.080688 128.775955,306.872131 
	C147.925446,295.261322 167.205139,283.865448 186.371521,272.282318 
	C201.410660,263.193451 216.323181,253.895065 231.364853,244.810455 
	C247.130157,235.288849 263.054626,226.029602 278.779205,216.442001 
	C300.873505,202.970657 322.786438,189.201691 344.888672,175.743530 
	C372.674896,158.824326 400.610931,142.151260 428.412994,125.257965 
	C451.653992,111.136139 474.818115,96.887192 497.954041,82.593834 
	C501.116272,80.640228 503.917938,78.102974 506.941772,75.501884 
	C520.355225,75.117828 533.713501,75.067833 547.535034,75.092239 
z"/>
<path fill="#A5A6FF" opacity="1.000000" stroke="none" 
	d="
M415.967346,356.101105 
	C422.752533,351.685638 429.438080,347.107361 436.340302,342.883179 
	C464.673859,325.543121 493.049561,308.271545 521.455139,291.049652 
	C551.147034,273.047913 580.926453,255.190399 610.601318,237.160751 
	C635.449951,222.063385 660.153015,206.726318 685.011475,191.645233 
	C714.691101,173.639191 744.497803,155.842667 774.190308,137.857758 
	C791.084045,127.625107 807.876709,117.224831 824.672546,106.831688 
	C827.591553,105.025436 830.299683,102.878448 833.292053,100.527847 
	C843.213623,102.850075 852.948303,105.533241 862.863037,108.550415 
	C854.665833,114.264893 846.384888,119.802979 837.891907,124.994087 
	C818.320129,136.956802 798.635620,148.735062 779.014465,160.617081 
	C747.879333,179.471634 716.741150,198.321365 685.637939,217.228516 
	C666.322205,228.970215 647.092224,240.852936 627.781555,252.603012 
	C599.108765,270.049744 570.394775,287.428589 541.705444,304.848267 
	C514.427979,321.410706 487.130432,337.940491 459.902771,354.584503 
	C449.879089,360.711884 440.030090,367.124908 429.731781,373.583923 
	C424.897217,367.873840 420.432281,361.987457 415.967346,356.101105 
z"/>
<path fill="#BDBDFF" opacity="1.000000" stroke="none" 
	d="
M29.090677,416.460266 
	C36.494839,411.805634 43.908630,407.755371 51.136040,403.396027 
	C81.019806,385.371124 110.847610,367.253418 140.694977,349.168152 
	C154.908585,340.555847 169.136276,331.966614 183.328842,323.319733 
	C209.709488,307.247162 236.053802,291.114899 262.443054,275.056488 
	C279.186798,264.867554 296.004578,254.800400 312.752411,244.618164 
	C331.753571,233.065979 350.695740,221.416748 369.696289,209.863525 
	C392.264923,196.140717 414.887939,182.507294 437.451599,168.776352 
	C462.571503,153.489807 487.626251,138.096161 512.755615,122.825226 
	C535.743958,108.855400 558.802673,95.001305 581.797119,81.041603 
	C583.310242,80.123055 584.540955,78.739418 585.972839,77.228851 
	C592.833191,76.923950 599.625183,76.892334 606.413086,77.045219 
	C608.335327,77.088509 610.245422,77.670448 612.579773,78.085205 
	C610.659485,80.106682 608.515442,82.366043 605.950745,83.939674 
	C585.281616,96.621605 564.519104,109.151199 543.813660,121.774147 
	C527.383850,131.790482 511.021698,141.917831 494.580170,151.914734 
	C472.737793,165.195541 450.857391,178.413940 428.974274,191.627594 
	C414.489594,200.373840 399.926544,208.990997 385.480194,217.799759 
	C369.031250,227.829620 352.714050,238.075577 336.261383,248.099289 
	C324.937988,254.998001 313.426239,261.587433 302.097107,268.476929 
	C283.924286,279.528168 265.878296,290.787994 247.695007,301.821777 
	C228.103577,313.709991 208.396423,325.407349 188.776627,337.249023 
	C174.703201,345.743195 160.685074,354.329102 146.651962,362.889923 
	C132.329086,371.627472 118.005615,380.364166 103.704956,389.138000 
	C84.912704,400.667572 66.192657,412.315918 47.332031,423.732239 
	C41.714577,427.132477 35.729431,429.925293 29.538912,432.997406 
	C29.114906,427.639771 29.064751,422.281158 29.090677,416.460266 
z"/>
<path fill="#5656FF" opacity="1.000000" stroke="none" 
	d="
M735.442566,736.906372 
	C736.333252,735.228149 737.364319,733.125122 739.050903,732.091370 
	C761.010071,718.630554 783.069702,705.333740 805.088684,691.970276 
	C824.107727,680.427429 843.112061,668.860352 862.114136,657.289612 
	C892.913086,638.535828 923.691711,619.748657 954.515503,601.035889 
	C958.615967,598.546509 962.930298,596.409424 967.489868,594.053467 
	C964.906738,603.233459 962.706177,612.780640 958.909241,621.643982 
	C949.304321,644.064697 935.643433,663.932983 917.785034,680.589417 
	C894.099060,702.681213 866.763611,718.273804 834.526062,723.920776 
	C816.377808,727.099731 798.090088,729.525940 779.820190,731.952759 
	C765.211243,733.893188 750.534424,735.322510 735.442566,736.906372 
z"/>
<path fill="#5656FF" opacity="1.000000" stroke="none" 
	d="
M547.085815,843.421509 
	C552.179077,839.644104 557.303040,836.010681 562.643982,832.730530 
	C576.242188,824.379333 589.949890,816.206604 603.591125,807.925049 
	C627.445374,793.442932 651.288025,778.941650 675.123962,764.429382 
	C682.927246,759.678528 690.674255,754.834717 698.502136,750.125122 
	C699.572937,749.480957 700.965271,749.371338 702.591431,749.024048 
	C703.036804,771.729919 703.099426,794.425903 702.711670,817.616760 
	C697.336365,820.844727 692.314941,823.418823 687.503723,826.338989 
	C668.230530,838.037292 649.020874,849.840332 629.791016,861.609863 
	C616.489014,869.751404 603.192322,877.901550 589.893188,886.047852 
	C575.667175,871.940674 561.441223,857.833557 547.085815,843.421509 
z"/>
<path fill="#8C8CFF" opacity="1.000000" stroke="none" 
	d="
M959.833496,204.997986 
	C963.515625,216.548553 967.220886,228.091873 970.841187,239.661789 
	C971.175171,240.729477 970.967468,241.966660 970.686279,243.561493 
	C969.110474,244.411270 967.728882,244.607666 966.628723,245.270996 
	C951.828186,254.194931 937.054871,263.164398 922.298828,272.161835 
	C905.279907,282.539032 888.296997,292.975250 871.276306,303.349579 
	C847.302429,317.961914 823.331482,332.579407 799.308777,347.111176 
	C791.932983,351.572968 784.391846,355.761383 776.626343,359.926727 
	C766.856873,351.547516 757.387512,343.316559 747.982910,334.734253 
	C753.820374,330.359833 759.410278,326.037994 765.402100,322.373322 
	C779.716003,313.618744 794.301880,305.309204 808.624146,296.567993 
	C824.625000,286.802368 840.380737,276.635132 856.378052,266.863556 
	C882.890381,250.669113 909.483826,234.606842 936.101929,218.586594 
	C943.910217,213.887131 951.917419,209.518311 959.833496,204.997986 
z"/>
<path fill="#4E4EFF" opacity="1.000000" stroke="none" 
	d="
M590.028564,886.356567 
	C603.192322,877.901550 616.489014,869.751404 629.791016,861.609863 
	C649.020874,849.840332 668.230530,838.037292 687.503723,826.338989 
	C692.314941,823.418823 697.336365,820.844727 702.615845,818.080200 
	C703.049255,828.695618 703.202393,839.342529 703.191772,849.989380 
	C703.167969,873.958679 703.235229,897.930115 702.924500,921.896240 
	C702.747864,935.520142 695.125366,944.622498 683.272583,950.133911 
	C671.535217,955.591553 659.750793,954.164062 650.400940,945.576111 
	C633.032227,929.622620 616.541260,912.713074 599.697021,896.189209 
	C596.490601,893.043762 593.340210,889.841370 590.028564,886.356567 
z"/>
<path fill="#8484FF" opacity="1.000000" stroke="none" 
	d="
M776.926453,360.075012 
	C784.391846,355.761383 791.932983,351.572968 799.308777,347.111176 
	C823.331482,332.579407 847.302429,317.961914 871.276306,303.349579 
	C888.296997,292.975250 905.279907,282.539032 922.298828,272.161835 
	C937.054871,263.164398 951.828186,254.194931 966.628723,245.270996 
	C967.728882,244.607666 969.110474,244.411270 970.741821,243.980392 
	C972.082153,250.836121 973.448853,257.683197 973.891602,264.589478 
	C974.370178,272.054535 973.985718,279.574921 973.906128,287.534912 
	C966.893372,291.875854 959.869141,295.613037 953.032410,299.666473 
	C944.899780,304.488220 936.940369,309.601379 928.883972,314.552643 
	C915.612000,322.709351 902.351440,330.885315 889.033203,338.965912 
	C871.286926,349.733124 853.461304,360.369629 835.724365,371.152222 
	C823.134094,378.806061 810.634216,386.608734 797.721558,394.485992 
	C795.716736,391.056671 794.425781,387.276367 792.384338,383.957733 
	C787.417114,375.882751 782.101685,368.022034 776.926453,360.075012 
z"/>
<path fill="#9898FF" opacity="1.000000" stroke="none" 
	d="
M567.832703,382.003510 
	C563.284546,384.310455 558.574036,386.347565 554.215088,388.969116 
	C529.883972,403.602539 505.615570,418.340698 481.368439,433.113190 
	C451.324005,451.417633 421.344727,469.829071 391.292786,488.121124 
	C369.603302,501.323059 347.852600,514.424622 326.107361,527.534729 
	C311.332703,536.442322 296.472870,545.209351 281.737030,554.180420 
	C264.152069,564.886108 246.713730,575.832886 229.113266,586.512756 
	C201.858734,603.050598 174.488266,619.397339 147.228607,635.926697 
	C126.367165,648.576477 105.596031,661.375366 84.808144,674.146057 
	C83.845146,674.737671 83.111092,675.701904 82.110733,676.801086 
	C78.351585,673.296509 74.752083,669.483398 71.019501,665.356995 
	C77.650230,661.194885 84.499763,657.488281 91.162674,653.472046 
	C116.643600,638.112976 142.082321,622.683655 167.501602,607.222656 
	C184.542099,596.857849 201.482361,586.327881 218.542267,575.995361 
	C236.161255,565.324219 253.915146,554.875732 271.527527,544.193787 
	C287.569611,534.464233 303.456421,524.478699 319.491791,514.737854 
	C343.488434,500.160889 367.585175,485.748718 391.582703,471.173187 
	C410.475983,459.697815 429.238983,448.007782 448.139954,436.545135 
	C477.414764,418.791199 506.785950,401.196045 536.060242,383.441162 
	C550.814026,374.492950 565.408447,365.281860 580.166199,356.340240 
	C582.644531,354.838654 585.588501,354.105560 588.551270,353.320343 
	C581.801025,363.083405 574.816895,372.543457 567.832703,382.003510 
z"/>
<path fill="#9192FF" opacity="1.000000" stroke="none" 
	d="
M959.797363,204.639496 
	C951.917419,209.518311 943.910217,213.887131 936.101929,218.586594 
	C909.483826,234.606842 882.890381,250.669113 856.378052,266.863556 
	C840.380737,276.635132 824.625000,286.802368 808.624146,296.567993 
	C794.301880,305.309204 779.716003,313.618744 765.402100,322.373322 
	C759.410278,326.037994 753.820374,330.359833 747.659058,334.611511 
	C736.515076,330.172577 725.759766,325.505035 715.060181,320.503265 
	C716.387817,318.923523 717.479797,317.384735 718.958984,316.477020 
	C737.080688,305.357178 755.259521,294.330414 773.422668,283.278168 
	C791.169739,272.479034 808.920715,261.686340 826.660583,250.875488 
	C839.274292,243.188553 851.860596,235.456635 864.480530,227.779892 
	C882.503235,216.816666 900.511414,205.828613 918.593933,194.964630 
	C927.689941,189.499695 936.936340,184.284988 946.114746,178.957184 
	C950.663635,187.398483 955.212463,195.839752 959.797363,204.639496 
z"/>
<path fill="#AFB0FF" opacity="1.000000" stroke="none" 
	d="
M215.011200,433.887909 
	C204.033783,440.744995 193.089722,447.656219 182.071320,454.446808 
	C164.271973,465.416351 146.461731,476.369232 128.585999,487.213654 
	C108.990013,499.101654 89.290634,510.819183 69.682930,522.687988 
	C58.324726,529.563232 47.080173,536.626221 35.728046,543.511658 
	C33.944515,544.593445 31.860596,545.179993 29.540520,545.996094 
	C29.114897,532.639343 29.064337,519.282043 29.454504,505.450562 
	C31.438072,504.392487 33.115734,504.031403 34.503613,503.191467 
	C57.529358,489.256989 80.518539,475.262115 103.516388,461.281555 
	C122.229790,449.905518 140.959061,438.555481 159.650406,427.143311 
	C167.582642,422.300293 175.322556,417.132050 183.362473,412.478912 
	C189.348022,409.014801 195.675507,406.141510 201.898956,403.458496 
	C202.300461,407.848846 202.180222,411.901428 203.107910,415.697998 
	C204.907852,423.064209 207.999924,429.821838 215.011200,433.887909 
z"/>
<path fill="#B4B4FF" opacity="1.000000" stroke="none" 
	d="
M201.850708,403.005096 
	C195.675507,406.141510 189.348022,409.014801 183.362473,412.478912 
	C175.322556,417.132050 167.582642,422.300293 159.650406,427.143311 
	C140.959061,438.555481 122.229790,449.905518 103.516388,461.281555 
	C80.518539,475.262115 57.529358,489.256989 34.503613,503.191467 
	C33.115734,504.031403 31.438072,504.392487 29.530470,504.987244 
	C29.114847,494.306488 29.063986,483.614807 29.089722,472.459778 
	C38.189457,466.730804 47.247780,461.524353 56.227291,456.185364 
	C68.941833,448.625549 81.642044,441.039764 94.269409,433.335632 
	C114.124252,421.222015 133.882874,408.950714 153.738815,396.838959 
	C173.310806,384.900360 192.890945,372.972473 212.596817,361.257416 
	C219.985092,356.865143 227.737656,353.085602 235.539032,349.314453 
	C230.861694,355.002411 225.608032,360.122192 221.154175,365.862579 
	C212.489899,377.029602 206.008224,389.440857 201.850708,403.005096 
z"/>
<path fill="#9898FF" opacity="1.000000" stroke="none" 
	d="
M648.101685,319.374969 
	C649.382080,317.803925 650.361450,315.746063 651.990479,314.738831 
	C665.127136,306.616119 678.414795,298.738251 691.600708,290.694366 
	C709.854919,279.558655 728.030457,268.293823 746.295349,257.175690 
	C766.286865,245.006500 786.355774,232.964584 806.364807,220.824066 
	C824.805969,209.634872 843.202393,198.372025 861.636719,187.171600 
	C881.909668,174.854004 902.203430,162.570633 922.799011,150.113373 
	C926.798889,153.888199 930.487793,157.821976 934.149902,162.342407 
	C932.151306,164.416367 930.281555,166.069153 928.188232,167.359100 
	C922.533264,170.843857 916.744080,174.110489 911.078003,177.577728 
	C893.946899,188.060806 876.895752,198.675232 859.726257,209.094833 
	C837.730469,222.443344 815.606140,235.580185 793.618530,248.942230 
	C773.928589,260.907959 754.377869,273.102600 734.711182,285.106842 
	C720.112427,294.017731 705.397461,302.738495 690.828857,311.697845 
	C689.530334,312.496399 688.930420,314.430908 687.540222,315.898224 
	C673.960754,315.696991 660.894653,315.978424 648.101685,319.374969 
z"/>
<path fill="#9495FF" opacity="1.000000" stroke="none" 
	d="
M688.006042,315.837799 
	C688.930420,314.430908 689.530334,312.496399 690.828857,311.697845 
	C705.397461,302.738495 720.112427,294.017731 734.711182,285.106842 
	C754.377869,273.102600 773.928589,260.907959 793.618530,248.942230 
	C815.606140,235.580185 837.730469,222.443344 859.726257,209.094833 
	C876.895752,198.675232 893.946899,188.060806 911.078003,177.577728 
	C916.744080,174.110489 922.533264,170.843857 928.188232,167.359100 
	C930.281555,166.069153 932.151306,164.416367 934.363342,162.594162 
	C938.346619,167.611130 942.089539,172.963013 945.973633,178.636017 
	C936.936340,184.284988 927.689941,189.499695 918.593933,194.964630 
	C900.511414,205.828613 882.503235,216.816666 864.480530,227.779892 
	C851.860596,235.456635 839.274292,243.188553 826.660583,250.875488 
	C808.920715,261.686340 791.169739,272.479034 773.422668,283.278168 
	C755.259521,294.330414 737.080688,305.357178 718.958984,316.477020 
	C717.479797,317.384735 716.387817,318.923523 714.697571,320.420288 
	C705.521484,319.060303 696.763794,317.449036 688.006042,315.837799 
z"/>
<path fill="#FFFFFF" opacity="1.000000" stroke="none" 
	d="
M687.540222,315.898224 
	C696.763794,317.449036 705.521484,319.060303 714.641846,320.754517 
	C725.759766,325.505035 736.515076,330.172577 747.594238,334.962860 
	C757.387512,343.316559 766.856873,351.547516 776.626343,359.926758 
	C782.101685,368.022034 787.417114,375.882751 792.384338,383.957733 
	C794.425781,387.276367 795.716736,391.056671 797.633423,394.823059 
	C800.853088,403.545929 801.386108,411.999329 797.543701,420.466125 
	C792.713867,431.108643 784.732666,437.427673 773.259033,440.108917 
	C761.758850,442.796448 752.627136,438.219727 743.356262,432.049683 
	C739.170654,425.113342 735.300903,418.340088 731.249817,411.275879 
	C726.886536,402.122284 719.898254,395.986664 711.400757,390.821533 
	C701.134888,385.241028 690.819885,381.628113 679.157227,381.897491 
	C662.018311,382.293335 647.154175,388.130951 635.714966,400.597839 
	C629.918274,406.915222 625.575256,414.921204 621.948792,422.796387 
	C615.687256,436.393799 593.071045,445.499817 580.568787,438.401184 
	C579.188477,437.617462 577.436401,437.488525 575.481689,437.005951 
	C571.272095,432.718750 567.018738,428.776001 563.755920,424.136658 
	C561.715515,421.235474 561.167419,417.284760 559.891968,413.404877 
	C557.807373,404.036652 561.250061,396.195068 564.911194,388.402130 
	C565.812195,386.484222 566.757141,384.587006 567.757324,382.341888 
	C574.816895,372.543457 581.801025,363.083405 588.949097,353.326904 
	C599.163391,343.706177 609.774170,335.050262 622.303345,329.326874 
	C630.451111,325.604950 639.078552,322.933105 647.796387,319.582886 
	C660.894653,315.978424 673.960754,315.696991 687.540222,315.898224 
z"/>
<path fill="#FFFFFF" opacity="1.000000" stroke="none" 
	d="
M201.898956,403.458496 
	C206.008224,389.440857 212.489899,377.029602 221.154175,365.862579 
	C225.608032,360.122192 230.861694,355.002411 235.921371,349.310425 
	C246.664185,341.868195 257.102112,334.500183 267.889374,327.685089 
	C271.669159,325.297089 276.307831,324.268494 280.784851,322.356995 
	C289.366699,320.258514 297.635925,317.705383 306.086700,316.738220 
	C322.577209,314.850983 339.059265,315.458862 355.609680,319.904266 
	C367.781891,325.162598 379.553101,330.464142 391.633423,335.921967 
	C399.754517,342.644196 407.566467,349.210175 415.672852,355.938599 
	C420.432281,361.987457 424.897217,367.873840 429.660461,373.926880 
	C432.760895,379.659180 435.869019,385.096741 438.269043,390.830658 
	C440.211609,395.471710 441.302002,400.469421 442.967194,405.657349 
	C442.605865,412.376953 442.389008,419.148499 438.563538,424.347870 
	C427.927765,438.803345 416.448792,443.848511 398.008057,438.634918 
	C397.229553,438.414856 396.444580,438.217499 395.343872,437.946228 
	C387.294800,433.720734 382.145691,427.582092 378.580780,419.406067 
	C375.988861,413.461731 371.427612,408.376007 367.538147,402.591858 
	C364.040527,399.185944 360.885559,395.932373 357.426208,393.043243 
	C352.100586,388.595459 345.826416,386.273315 339.129730,384.341644 
	C331.726440,382.206116 324.458710,381.210388 316.866241,382.005676 
	C305.584595,383.187378 295.220825,386.665100 286.015656,393.540466 
	C275.409760,401.462128 268.807465,412.102112 263.756500,424.085968 
	C260.025940,432.937103 252.212051,437.466034 243.439178,439.598083 
	C233.617798,441.984955 224.007004,440.719849 215.331543,434.063721 
	C207.999924,429.821838 204.907852,423.064209 203.107910,415.697998 
	C202.180222,411.901428 202.300461,407.848846 201.898956,403.458496 
z"/>
</svg>